<?xml version="1.0" encoding="UTF-8"?>
<svg version="1.1" xmlns="http://www.w3.org/2000/svg" width="265" height="190">
<path d="M0 0 C1.06347656 0.01417969 2.12695312 0.02835937 3.22265625 0.04296875 C4.28355469 0.04941406 5.34445313 0.05585937 6.4375 0.0625 C9.28515625 0.23046875 9.28515625 0.23046875 12.28515625 1.23046875 C14.47894742 1.33427823 16.67577951 1.37694267 18.87199402 1.38868713 C19.87796127 1.39608162 19.87796127 1.39608162 20.9042511 1.40362549 C23.1629714 1.41902562 25.42166358 1.4273689 27.68041992 1.43579102 C29.32280635 1.44550491 30.96519028 1.4556503 32.6075716 1.4661932 C37.01217156 1.49327246 41.41678151 1.51443337 45.82141876 1.53438568 C49.95213441 1.55398887 54.08281126 1.57890635 58.21350098 1.60339355 C70.29985691 1.67193622 82.3862601 1.73192807 94.47265625 1.79296875 C121.47078125 1.93734375 148.46890625 2.08171875 176.28515625 2.23046875 C176.28515625 61.30046875 176.28515625 120.37046875 176.28515625 181.23046875 C117.21515625 181.23046875 58.14515625 181.23046875 -2.71484375 181.23046875 C-3.15234375 96.85546875 -3.15234375 96.85546875 -3.28295898 70.17431641 C-3.32619311 62.30936825 -3.32619311 62.30936825 -3.3707428 54.44442749 C-3.39061227 50.93035678 -3.40768972 47.41628416 -3.42311096 43.90219116 C-3.44284147 39.42665908 -3.46726063 34.95117617 -3.49514973 30.47568774 C-3.50459983 28.82886413 -3.51236966 27.18202987 -3.51831329 25.53518987 C-3.52654725 23.3190293 -3.54079607 21.1029887 -3.55662537 18.88687134 C-3.56307792 17.64245081 -3.56953047 16.39803028 -3.57617855 15.11590004 C-3.51741734 12.28885146 -3.51741734 12.28885146 -4.71484375 10.23046875 C-4.8828125 8.35546875 -4.8828125 8.35546875 -4.90234375 6.23046875 C-4.91652344 5.52921875 -4.93070313 4.82796875 -4.9453125 4.10546875 C-4.53918881 0.80141159 -3.1422637 0.26675332 0 0 Z " fill="#0179CC" transform="translate(45.71484375,3.76953125)"/>
<path d="M0 0 C1.7265625 1.1015625 1.7265625 1.1015625 3.3125 2.375 C4.22128906 3.09816406 4.22128906 3.09816406 5.1484375 3.8359375 C6.875 5.375 6.875 5.375 9.3125 8.375 C9.2734375 10.328125 9.2734375 10.328125 8.3125 12.375 C6.09765625 14.296875 6.09765625 14.296875 3.375 16.125 C2.03115234 17.04539062 2.03115234 17.04539062 0.66015625 17.984375 C-1.6875 19.375 -1.6875 19.375 -3.6875 19.375 C-5.04136936 17.72497172 -6.37428142 16.0575613 -7.6875 14.375 C-10.70618434 12.86565783 -13.36047229 13.19989328 -16.6875 13.375 C-17.6775 14.035 -18.6675 14.695 -19.6875 15.375 C-20.31332694 19.46629125 -20.31332694 19.46629125 -19.6875 23.375 C-15.31901389 27.75198511 -9.67044266 29.83227616 -4.1015625 32.28710938 C4.4249084 36.14686004 10.56181248 40.32348745 14.5625 49.125 C16.39851683 57.08107294 15.74760805 63.08758569 11.71875 70.25 C7.89805628 76.02349273 1.88148546 78.73693238 -4.6875 80.375 C-15.15603649 81.4454025 -25.10884304 80.90330887 -34.03125 74.76171875 C-38.08494727 71.44973058 -40.75249605 68.33344763 -42.6875 63.375 C-40.94791859 62.17228941 -39.19540255 60.9882699 -37.4375 59.8125 C-36.46296875 59.15121094 -35.4884375 58.48992187 -34.484375 57.80859375 C-31.6875 56.375 -31.6875 56.375 -29.55078125 56.4375 C-27.24707181 57.59659909 -25.88438526 59.05651576 -24.125 60.9375 C-20.75735847 64.00873862 -18.56612862 64.90769282 -14 65 C-9.33985358 64.69621792 -6.05832626 63.74582626 -2.6875 60.375 C-2.10221223 57.54518409 -2.10221223 57.54518409 -2.6875 54.375 C-6.79667682 50.39129422 -10.9672532 48.05351504 -16.1875 45.8125 C-24.38324811 42.24445209 -31.7345325 38.26267034 -36.5 30.375 C-38.93161086 24.05281178 -38.58252365 16.3957048 -36.6875 10 C-28.22957071 -1.10103219 -13.26381729 -6.19322208 0 0 Z " fill="#F5FBFC" transform="translate(192.6875,89.625)"/>
<path d="M0 0 C20.79 0 41.58 0 63 0 C63 4.95 63 9.9 63 15 C55.41 15 47.82 15 40 15 C40 36.78 40 58.56 40 81 C34.39 81 28.78 81 23 81 C23 59.22 23 37.44 23 15 C15.41 15 7.82 15 0 15 C0 10.05 0 5.1 0 0 Z " fill="#F3FAFD" transform="translate(82,88)"/>
<path d="M0 0 C1.09054688 0.02320313 2.18109375 0.04640625 3.3046875 0.0703125 C4.40039062 0.08835938 5.49609375 0.10640625 6.625 0.125 C7.46804687 0.14820313 8.31109375 0.17140625 9.1796875 0.1953125 C8.8496875 0.8553125 8.5196875 1.5153125 8.1796875 2.1953125 C4.8796875 2.1953125 1.5796875 2.1953125 -1.8203125 2.1953125 C-1.8203125 60.9353125 -1.8203125 119.6753125 -1.8203125 180.1953125 C56.5896875 180.1953125 114.9996875 180.1953125 175.1796875 180.1953125 C175.1796875 121.4553125 175.1796875 62.7153125 175.1796875 2.1953125 C175.5096875 2.1953125 175.8396875 2.1953125 176.1796875 2.1953125 C176.1796875 61.2653125 176.1796875 120.3353125 176.1796875 181.1953125 C117.1096875 181.1953125 58.0396875 181.1953125 -2.8203125 181.1953125 C-3.2578125 96.8203125 -3.2578125 96.8203125 -3.38842773 70.13916016 C-3.43166186 62.274212 -3.43166186 62.274212 -3.47621155 54.40927124 C-3.49608102 50.89520053 -3.51315847 47.38112791 -3.52857971 43.86703491 C-3.54831022 39.39150283 -3.57272938 34.91601992 -3.60061848 30.44053149 C-3.61006858 28.79370788 -3.61783841 27.14687362 -3.62378204 25.50003362 C-3.632016 23.28387305 -3.64626482 21.06783245 -3.66209412 18.85171509 C-3.66854667 17.60729456 -3.67499922 16.36287403 -3.6816473 15.08074379 C-3.62288609 12.25369521 -3.62288609 12.25369521 -4.8203125 10.1953125 C-4.98828125 8.3203125 -4.98828125 8.3203125 -5.0078125 6.1953125 C-5.02199219 5.4940625 -5.03617188 4.7928125 -5.05078125 4.0703125 C-4.63562597 0.69277802 -3.20279554 0.22180025 0 0 Z " fill="#2C75AD" transform="translate(45.8203125,3.8046875)"/>
<path d="M0 0 C1.57887159 3.15774318 1.41979004 6.58901964 1.625 10.0625 C1.70234375 11.18108398 1.70234375 11.18108398 1.78125 12.32226562 C1.89800373 14.21264584 1.95387016 16.10657959 2 18 C1.505 18.495 1.505 18.495 1 19 C-6.59 19 -14.18 19 -22 19 C-22.33 40.78 -22.66 62.56 -23 85 C-26.0979597 86.54897985 -29.26216552 85.83239539 -32.625 85.5625 C-33.33140625 85.51029297 -34.0378125 85.45808594 -34.765625 85.40429688 C-36.51079987 85.27458793 -38.25545725 85.13795046 -40 85 C-40 84.34 -40 83.68 -40 83 C-34.72 83 -29.44 83 -24 83 C-24 61.22 -24 39.44 -24 17 C-16.41 17 -8.82 17 -1 17 C-1 12.05 -1 7.1 -1 2 C-21.79 2 -42.58 2 -64 2 C-64 1.67 -64 1.34 -64 1 C-55.95074832 0.86942677 -47.90149387 0.73902649 -39.85223579 0.60884857 C-36.11486804 0.54839992 -32.37750129 0.48789112 -28.64013672 0.42724609 C-25.03510638 0.3687506 -21.43007355 0.3104115 -17.82503891 0.25218201 C-16.44789413 0.22991027 -15.07075026 0.20758166 -13.69360733 0.18519592 C-11.76855965 0.15391348 -9.84350842 0.12284987 -7.91845703 0.09179688 C-6.27298386 0.06514954 -6.27298386 0.06514954 -4.5942688 0.03796387 C-3.06295754 0.01555505 -1.53147522 0 0 0 Z " fill="#0F6BAF" transform="translate(146,86)"/>
<path d="M0 0 C1.09054688 0.02320313 2.18109375 0.04640625 3.3046875 0.0703125 C4.40039062 0.08835938 5.49609375 0.10640625 6.625 0.125 C7.46804687 0.14820313 8.31109375 0.17140625 9.1796875 0.1953125 C8.8496875 0.8553125 8.5196875 1.5153125 8.1796875 2.1953125 C4.8796875 2.1953125 1.5796875 2.1953125 -1.8203125 2.1953125 C-1.8203125 60.6053125 -1.8203125 119.0153125 -1.8203125 179.1953125 C-2.1503125 179.1953125 -2.4803125 179.1953125 -2.8203125 179.1953125 C-2.82454444 178.33648279 -2.82877638 177.47765308 -2.83313656 176.59279823 C-2.93632398 155.72071677 -3.04494369 134.84866978 -3.15965176 113.97664833 C-3.21499132 103.88320715 -3.26847452 93.78976243 -3.31762695 83.69628906 C-3.36045981 74.90150157 -3.40673552 66.10674019 -3.45719105 57.311993 C-3.48379923 52.65283423 -3.50865248 47.99368066 -3.52938652 43.33449173 C-3.54893839 38.95315278 -3.57307779 34.57186355 -3.60080338 30.19056892 C-3.6101815 28.57886086 -3.61785404 26.96714188 -3.62373161 25.35541725 C-3.63197989 23.16215236 -3.64625285 20.96900857 -3.66209412 18.77578735 C-3.66854667 17.54611551 -3.67499922 16.31644367 -3.6816473 15.04950905 C-3.62540679 12.24905388 -3.62540679 12.24905388 -4.8203125 10.1953125 C-4.98828125 8.3203125 -4.98828125 8.3203125 -5.0078125 6.1953125 C-5.02199219 5.4940625 -5.03617188 4.7928125 -5.05078125 4.0703125 C-4.63562597 0.69277802 -3.20279554 0.22180025 0 0 Z " fill="#4383B5" transform="translate(45.8203125,3.8046875)"/>
<path d="M0 0 C0.33 0 0.66 0 1 0 C1 22.44 1 44.88 1 68 C-2.0979597 69.54897985 -5.26216552 68.83239539 -8.625 68.5625 C-9.33140625 68.51029297 -10.0378125 68.45808594 -10.765625 68.40429688 C-12.51079987 68.27458793 -14.25545725 68.13795046 -16 68 C-16 67.34 -16 66.68 -16 66 C-10.72 66 -5.44 66 0 66 C0 44.22 0 22.44 0 0 Z " fill="#3381BF" transform="translate(122,103)"/>
<path d="M0 0 C1.09054688 0.02320313 2.18109375 0.04640625 3.3046875 0.0703125 C4.40039062 0.08835938 5.49609375 0.10640625 6.625 0.125 C7.46804687 0.14820313 8.31109375 0.17140625 9.1796875 0.1953125 C8.8496875 0.8553125 8.5196875 1.5153125 8.1796875 2.1953125 C4.8796875 2.1953125 1.5796875 2.1953125 -1.8203125 2.1953125 C-1.8203125 17.0453125 -1.8203125 31.8953125 -1.8203125 47.1953125 C-2.1503125 47.1953125 -2.4803125 47.1953125 -2.8203125 47.1953125 C-2.84536865 46.14553223 -2.8704248 45.09575195 -2.89624023 44.01416016 C-2.99027517 40.12649926 -3.0905053 36.23901869 -3.19262695 32.3515625 C-3.23599067 30.66768608 -3.2776647 28.98376527 -3.31762695 27.29980469 C-3.37529484 24.88202526 -3.438999 22.46446955 -3.50390625 20.046875 C-3.52061874 19.2916153 -3.53733124 18.53635559 -3.55455017 17.75820923 C-3.59586357 13.84791451 -3.59586357 13.84791451 -4.8203125 10.1953125 C-4.98828125 8.3203125 -4.98828125 8.3203125 -5.0078125 6.1953125 C-5.02199219 5.4940625 -5.03617188 4.7928125 -5.05078125 4.0703125 C-4.63562597 0.69277802 -3.20279554 0.22180025 0 0 Z " fill="#8CB6D2" transform="translate(45.8203125,3.8046875)"/>
<path d="M0 0 C0.33 0 0.66 0 1 0 C1.16808419 2.10405391 1.33441948 4.20824758 1.5 6.3125 C1.5928125 7.48425781 1.685625 8.65601562 1.78125 9.86328125 C1.92364989 11.905194 2 13.9531279 2 16 C-5.59 16 -13.18 16 -21 16 C-21.33 16.66 -21.66 17.32 -22 18 C-22 16.68 -22 15.36 -22 14 C-14.74 14 -7.48 14 0 14 C0 9.38 0 4.76 0 0 Z " fill="#1C75B3" transform="translate(145,89)"/>
<path d="M0 0 C2.3248821 1.46513358 4.01370809 3.06215423 6 5 C5.67 5.66 5.34 6.32 5 7 C3.68 6.34 2.36 5.68 1 5 C1 4.01 1 3.02 1 2 C-2.63 2.66 -6.26 3.32 -10 4 C-9.67 5.32 -9.34 6.64 -9 8 C-8.34 8.33 -7.68 8.66 -7 9 C-6.855625 9.66 -6.71125 10.32 -6.5625 11 C-6.376875 11.66 -6.19125 12.32 -6 13 C-5.01 13.33 -4.02 13.66 -3 14 C-3 14.66 -3 15.32 -3 16 C-9.21668598 13.81575898 -9.21668598 13.81575898 -11 11 C-11.47282266 8.24378985 -11.50473005 5.75307301 -11 3 C-8.05798457 -0.76577975 -4.50858498 -0.62187379 0 0 Z " fill="#1E78B7" transform="translate(183,102)"/>
<path d="M0 0 C0.83364682 1.1370489 1.6197664 2.30942475 2.375 3.5 C3.75099474 5.56755223 3.75099474 5.56755223 6 7 C11.39493839 7.63690245 16.59353261 7.40452191 22 7 C21.67 7.66 21.34 8.32 21 9 C16.31776297 10.56074568 11.87233781 10.8453373 7 10 C4.56214564 8.42185256 2.7338886 6.74573404 0.75390625 4.62890625 C-1.21956381 2.79608439 -2.33332757 2.25246603 -5 2 C-8.21712945 3.35814007 -8.21712945 3.35814007 -11 5 C-11.33 4.01 -11.66 3.02 -12 2 C-7.85562868 0.42119188 -4.41424157 -0.8276703 0 0 Z " fill="#1E75B5" transform="translate(166,145)"/>
<path d="M0 0 C3.72910066 -0.0582462 7.45808364 -0.09367917 11.1875 -0.125 C12.24259766 -0.14175781 13.29769531 -0.15851563 14.38476562 -0.17578125 C15.40634766 -0.18222656 16.42792969 -0.18867187 17.48046875 -0.1953125 C18.41785889 -0.20578613 19.35524902 -0.21625977 20.32104492 -0.22705078 C25.54468744 0.21567113 29.22624714 2.43590008 33 6 C33.640625 8.1328125 33.640625 8.1328125 34 10 C33.22076172 9.38511719 33.22076172 9.38511719 32.42578125 8.7578125 C31.72839844 8.21898438 31.03101563 7.68015625 30.3125 7.125 C29.28576172 6.32449219 29.28576172 6.32449219 28.23828125 5.5078125 C23.21127789 2.12138441 18.71665932 1.64551361 12.75 1.6875 C11.6209021 1.68943359 11.6209021 1.68943359 10.46899414 1.69140625 C4.79977513 1.78930965 0.23360779 2.71624388 -5 5 C-4.67 4.01 -4.34 3.02 -4 2 C-2.68 2 -1.36 2 0 2 C0 1.34 0 0.68 0 0 Z " fill="#3283BF" transform="translate(167,87)"/>
<path d="M0 0 C0.495 0.99 0.495 0.99 1 2 C-2.18996692 5.8034221 -4.1208507 6.47324342 -9 7 C-12.89677513 7.18449528 -16.78677566 7.23053288 -20.6875 7.25 C-21.73228516 7.270625 -22.77707031 7.29125 -23.85351562 7.3125 C-24.85447266 7.31765625 -25.85542969 7.3228125 -26.88671875 7.328125 C-27.79639404 7.3374707 -28.70606934 7.34681641 -29.64331055 7.35644531 C-32.41719905 6.93689935 -33.27913488 6.15686508 -35 4 C-34.00613281 4.15855469 -33.01226562 4.31710938 -31.98828125 4.48046875 C-21.48389839 5.96676369 -11.51362981 6.08346314 -2 1 C-1.34 0.67 -0.68 0.34 0 0 Z " fill="#2276B6" transform="translate(200,164)"/>
<path d="M0 0 C2.475 0.495 2.475 0.495 5 1 C4.01 2.485 4.01 2.485 3 4 C6.88182102 9.9256586 10.72338959 13.68645948 17 17 C14 18 14 18 11.80859375 17.14453125 C11.02613281 16.70496094 10.24367187 16.26539063 9.4375 15.8125 C8.25994141 15.17248047 8.25994141 15.17248047 7.05859375 14.51953125 C4.76453706 12.82619528 4.09225215 11.59221133 3 9 C2.34 8.01 1.68 7.02 1 6 C0.60986284 4.0103005 0.26797351 2.00980131 0 0 Z " fill="#1D74B4" transform="translate(148,150)"/>
<path d="M0 0 C0.5625 1.9375 0.5625 1.9375 1 4 C0.67 4.33 0.34 4.66 0 5 C-0.23701239 7.85877909 -0.42219182 10.69883297 -0.5625 13.5625 C-0.60568359 14.36880859 -0.64886719 15.17511719 -0.69335938 16.00585938 C-0.79975262 18.00368805 -0.90040888 20.0018207 -1 22 C-4.24303336 17.13544996 -3.48145097 11.69368099 -3 6 C-2.25339036 3.58322891 -1.43894811 2.09846599 0 0 Z " fill="#D0F0FC" transform="translate(158,97)"/>
<path d="M0 0 C4.62 2.31 9.24 4.62 14 7 C14 7.66 14 8.32 14 9 C12.35 8.67 10.7 8.34 9 8 C9 7.34 9 6.68 9 6 C7.02 6.99 7.02 6.99 5 8 C4.67 7.34 4.34 6.68 4 6 C3.01 6.33 2.02 6.66 1 7 C0.67 4.69 0.34 2.38 0 0 Z " fill="#1477BD" transform="translate(163,128)"/>
<path d="M0 0 C0.66 0.33 1.32 0.66 2 1 C2.31806054 8.7276932 2.32270836 14.93924474 -1 22 C-1.99 22 -2.98 22 -4 22 C-2 17 -2 17 -0.9375 14.71875 C0.15424697 11.5526838 0.19839418 9.02693498 0.125 5.6875 C0.09792969 4.08455078 0.09792969 4.08455078 0.0703125 2.44921875 C0.04710937 1.64097656 0.02390625 0.83273438 0 0 Z " fill="#1D74B5" transform="translate(207,140)"/>
<path d="M0 0 C3.96 0.33 7.92 0.66 12 1 C12 1.66 12 2.32 12 3 C8.04 3 4.08 3 0 3 C0 2.01 0 1.02 0 0 Z " fill="#0B71BD" transform="translate(174,84)"/>
<path d="M0 0 C0.33 0.66 0.66 1.32 1 2 C-2.32307692 5.93846154 -2.32307692 5.93846154 -5.75 6.25 C-6.4925 6.1675 -7.235 6.085 -8 6 C-8 5.34 -8 4.68 -8 4 C-5.36 2.68 -2.72 1.36 0 0 Z " fill="#1476BC" transform="translate(200,164)"/>
<path d="M0 0 C2.475 0.495 2.475 0.495 5 1 C4.01 2.485 4.01 2.485 3 4 C3.66 5.32 4.32 6.64 5 8 C4.01 8.33 3.02 8.66 2 9 C1.34 6.03 0.68 3.06 0 0 Z " fill="#227FBF" transform="translate(148,150)"/>
<path d="M0 0 C3.77545388 1.09068668 6.47043472 1.9083091 9 5 C7.35 5.33 5.7 5.66 4 6 C4 5.34 4 4.68 4 4 C2.68 3.67 1.36 3.34 0 3 C0 2.01 0 1.02 0 0 Z " fill="#1E77B8" transform="translate(178,136)"/>
<path d="M0 0 C0.66 0.99 1.32 1.98 2 3 C0 5 0 5 -2.625 5.125 C-3.40875 5.08375 -4.1925 5.0425 -5 5 C-3.35 3.35 -1.7 1.7 0 0 Z " fill="#1676BF" transform="translate(201,101)"/>
</svg>
